<?xml version="1.0" encoding="utf-8"?>
<!-- Generator: Adobe Illustrator 19.1.0, SVG Export Plug-In . SVG Version: 6.00 Build 0)  -->
<svg version="1.1" id="base" xmlns="http://www.w3.org/2000/svg" xmlns:xlink="http://www.w3.org/1999/xlink" x="0px" y="0px"
	 width="300px" height="480px" viewBox="-349 261 300 480" style="enable-background:new -349 261 300 480;" xml:space="preserve">
<style type="text/css">
	.st0{fill:#FFFFFF;}
</style>
<g>
	
		<image style="overflow:visible;enable-background:new    ;" width="275" height="426" xlink:href="658A98596F624B8D.png"  transform="matrix(1 0 0 1 -336.5 288)">
	</image>
	<g>
		<g>
			<path class="st0" d="M-104.5,333.6v3.1c0,1.1-0.1,1.2-0.9,1.2l-3.9,0.3c-1.2,0.1-1.2-0.4-1.2-1.3V298c2.6,0.2,6.3,1,7,1.2H-77
				l1.6-2.5c0.4-0.6,0.7-1.1,1-1.1s2.6,1.6,3.1,1.9c1.5,1,3,2.1,3,2.5c0,0.9-2,1.7-2.2,1.8v34.1c0,1,0,1.3-0.8,1.4l-4.1,0.3
				c-1.2,0.1-1.2-0.3-1.2-0.9v-3h-27.9V333.6z M-76.6,333v-10c-0.8,1.7-2.1,2.1-5.6,2.1c-5.4,0-6-0.1-6.8-1.3
				c-0.6-0.8-0.8-1.4-0.8-4.9v-19.2h-7.3c2.7,0.2,3.5,0.2,4.2,0.4c0.3,0,0.7,0.1,0.7,0.5s-0.5,0.5-1,0.6v6.7
				c0,8.2-0.1,15.9-11.2,21.3v3.8H-76.6z M-104.5,299.7v28.9c4.6-4.9,5.3-11,5.3-19.8v-9.1H-104.5z M-84,299.7v17.6
				c0,1.1,0,1.8,1.4,1.8c1.2,0,1.6-0.7,1.9-1.3c0.5-1,0.9-2.1,2.5-6.1h0.1c0,1.3-0.2,4-0.2,5.2c0,0.9,0.1,1.1,0.7,1.7
				c0.4,0.3,0.7,0.6,0.9,1v-19.8H-84V299.7z"/>
			<path class="st0" d="M-70.3,365.6c0,11-9,19.9-19.9,19.9c-11,0-19.9-9-19.9-19.9c0-11.1,9-19.9,19.9-19.9
				C-79.4,345.7-70.3,354.5-70.3,365.6z M-109.5,365.6c0,10.6,8.6,19.2,19.2,19.2s19.2-8.6,19.2-19.2c0-10.7-8.7-19.2-19.2-19.2
				S-109.5,354.9-109.5,365.6z"/>
			<path class="st0" d="M-80.3,410.4l2.9-3.9c0.2-0.3,0.4-0.6,0.6-0.6c0.4,0,5.3,4.3,5.3,4.8c0,0.3-0.3,0.3-0.6,0.3h-12.6v12.2h7.6
				l3.1-4.2c0.2-0.3,0.4-0.6,0.6-0.6c0.5,0,5.5,4.5,5.5,4.9c0,0.3-0.3,0.3-0.6,0.3h-16.2v12.5c0,1.1-0.2,1.2-1,1.3l-4.2,0.3
				c-0.8,0-1.1,0-1.1-1v-13.1h-21.7l-0.2-0.5h8.3v-14.8c3.3,0.8,5.3,1.4,7.2,2h6.5V400h-7.8c-4.9,7.7-10.9,11.8-13.8,13.6h-0.1
				c3.9-5.2,7.6-13.5,9.9-21.1c2.4,0.5,5.2,1.1,7.7,1.7c0.3,0.1,0.7,0.2,0.7,0.5s-0.9,0.5-2,0.6c-0.5,1.3-1.1,2.4-2.2,4.2h20.1
				l2.8-4c0.1-0.2,0.4-0.6,0.6-0.6c0.4,0,5.6,4.3,5.6,4.8c0,0.3-0.3,0.3-0.6,0.3h-14.7v10.4H-80.3z M-90.9,423.2V411h-7.5v12.2
				H-90.9z"/>
			<path class="st0" d="M-148.8,315.9l2.8-4.2c0.2-0.3,0.4-0.6,0.6-0.6c0.4,0,5.6,4.7,5.6,5s-0.3,0.3-0.6,0.3h-12.8v19.1
				c0,1,0,2.5-1.3,3.5c-1.4,1.1-4.4,1.6-6,1.6c-1.4,0-1.4-0.3-1.5-2.4c-0.1-2.8-1.3-3.3-4.8-4.7v-0.1c2.9,0.2,5.7,0.2,6,0.2
				c1.4,0,1.4-0.6,1.4-2.5v-14.7h-25.9l-0.2-0.6h26.1V307c6.9,0.8,7.6,0.9,7.6,1.2c0,0.3-0.3,0.4-1.4,0.6v6.9h4.4V315.9z
				 M-149.1,302.7l2.5-2.7c0.6-0.6,0.7-0.8,0.9-0.8c0.5,0,6.3,5.8,6.3,6.6c0,0.7-0.3,0.7-3.2,0.8c-3.3,2.6-7.8,4.8-8.5,5.1v-0.1
				c1.3-3.1,2.2-7.1,2.4-8.3h-27.9c0.1,0.7,0.3,1.9,0.3,3.5c0,4.3-2.1,6.3-4.7,6.3c-2.2,0-3.7-1.6-3.7-3.1c0-1,0.4-1.4,1.5-2.4
				c4.2-3.8,4.9-7.3,5.2-8.5h0.1c0.4,1.2,0.7,2.1,1.1,3.7h11.1v-7.3c4.9,0.4,6.5,0.5,7.3,0.7c0.1,0,0.6,0.1,0.6,0.4
				c0,0.4-0.6,0.5-1.6,0.7v5.5h10.3V302.7z M-178.4,317.5c6.1,1.7,11.4,4.4,11.4,9c0,3.1-2.4,4.4-4.2,4.4s-2.1-1-2.4-2.6
				C-174.5,324.5-176.1,320.7-178.4,317.5L-178.4,317.5z"/>
			<path class="st0" d="M-170.3,390c7.7-1.6,13.4-4.5,13.4-19.8c0-1,0-9-1.4-11.6c-0.3-0.5-0.7-1-1.7-1c-3.5,0-6.6,8.8-6.6,16.5
				c0,1.5,0.1,1.9,0.5,3.4c0.1,0.5,0.1,0.9,0.1,0.9c0,1.2-1.3,2.1-2.9,2.1c-4.2,0-4.9-6.4-4.9-11.3c0-5.3,0.9-8.2,4.2-16
				c0.6-1.6,1.9-4.6,1.9-6s-1.1-1.6-2.4-1.7c0.7-0.4,1.5-1,2.9-1c1.7,0,5,0.8,5,5c0,2.4-0.8,3.7-1.5,4.7c-3.2,4.5-6.2,8.6-6.2,15.2
				c0,0.3,0,1.2,0.4,1.2c0.2,0,0.3-0.1,0.6-1.2c1.2-3.7,4.5-9.6,6.5-11.4c1.1-1,2.5-1.7,4.1-1.7c3.6,0,5.4,3.6,5.8,4.4
				c1.4,2.8,1.7,8.3,1.7,10.9c0,7.6-0.8,14.7-11.9,17.6c-3.8,1-6.5,0.9-7.6,0.9V390z"/>
			<path class="st0" d="M-155,395.8c2.9,0.1,7.6,0.4,10.8,2.6c1.3,0.8,3,2.5,3,5c0,2.3-1.4,3.8-3.6,3.8c-2.7,0-3.4-2-3.6-2.6
				c-0.8-2.4-2-5.7-7-8.5L-155,395.8z"/>
			<path class="st0" d="M-148.8,423.9l2.9-4c0.3-0.5,0.4-0.6,0.6-0.6c0.4,0,5.6,4.3,5.6,4.8c0,0.3-0.3,0.3-0.6,0.3h-19
				c-3.4,2.9-8.3,5.3-9.7,6c5.5,0,11.6-0.1,17.1-0.1c-1.3-1.4-3.1-3.3-5-4.5v-0.2c3.1,0.2,14.9,2.3,14.9,8.3c0,2.6-2.5,3.9-3.8,3.9
				c-0.7,0-0.7-0.1-1.4-1.1c-2.2-3.4-2.3-3.5-4.1-5.6c-1.6,0.5-12,4.2-29.9,6.3c-0.3-1.1-1.3-5-1.8-7h11.1c1.2-2.1,2.4-4.9,2.8-6
				h-16l-0.2-0.5h19.5v-6c3,0.3,6.2,0.6,6.9,0.7c0.3,0,0.6,0.1,0.6,0.3c0,0.2-0.8,0.5-1.3,0.6v4.3h10.8V423.9z M-152.6,436.6
				c0.2-0.3,0.7-0.9,0.8-0.9c0.2,0,6.1,4.1,6.1,4.8c0,0.6-1.4,1.1-2.1,1.3v15.9c0,1.8,0,2.4-0.5,3.3c-1.4,2.3-5.5,2.4-6.5,2.4
				s-1.4-0.3-1.4-1.2c0-2.7-0.8-4.6-5.1-6v-0.1c0.6,0,6.2,0.3,6.2,0.3c1.3,0,1.3-0.3,1.3-2.1v-3.8h-17.1v11.4c0,1.1-0.2,1.2-1.1,1.2
				l-3.9,0.3c-0.9,0-1.1-0.1-1.1-1V437c1.9,0.5,4.5,1.2,6.7,1.8h16L-152.6,436.6z M-153.8,439.4h-17.1v4.8h17.1V439.4z
				 M-153.8,444.7h-17.1v5.1h17.1V444.7z"/>
			<path class="st0" d="M-178.3,473.4c1,0,6-1.1,7.1-1.3c5.8-1.1,11.6-2,17.5-2.7c1.7-0.2,1.7-0.2,3.7-1.2c0.3-0.1,0.5-0.2,0.7-0.2
				c0.7,0,6.7,1.6,6.7,4.5c0,0.9-0.7,2.2-2.2,2.2c-0.6,0-0.8,0-2.8-0.5c-2-0.4-3.6-0.5-4.5-0.5c-5.9,0-7.9,3.3-8.7,4.7
				c-1.7,2.8-2.9,8.4-2.9,13.8c0,8.6,4.1,9.5,9.2,10.8c1.9,0.4,3.6,0.9,3.6,3.6c0,0.6-0.1,3.1-2.7,3.1c-0.3,0-3.1-0.1-6.4-1.3
				c-5.6-2.1-8.3-5.6-8.3-13.7c0-8.7,3.7-16.8,9.3-20.3c-4,0.3-10.9,2.4-14.6,4.1c-2.2,0.9-2.5,1-3.3,1c-3.1,0-5.2-2.8-5.2-5.6
				c0-0.5,0-1.9,0.7-2.8C-181.1,472-180.6,473.4-178.3,473.4z"/>
			<path class="st0" d="M-178.3,520.2c1,0,6-1.1,7.1-1.3c5.8-1.1,11.6-2,17.5-2.7c1.7-0.2,1.7-0.2,3.7-1.2c0.3-0.1,0.5-0.2,0.7-0.2
				c0.7,0,6.7,1.6,6.7,4.5c0,0.9-0.7,2.2-2.2,2.2c-0.6,0-0.8,0-2.8-0.5c-2-0.4-3.6-0.5-4.5-0.5c-5.9,0-7.9,3.3-8.7,4.7
				c-1.7,2.8-2.9,8.4-2.9,13.8c0,8.6,4.1,9.5,9.2,10.8c1.9,0.4,3.6,0.9,3.6,3.6c0,0.6-0.1,3.1-2.7,3.1c-0.3,0-3.1-0.1-6.4-1.3
				c-5.6-2.1-8.3-5.6-8.3-13.7c0-8.7,3.7-16.8,9.3-20.3c-4,0.3-10.9,2.4-14.6,4.1c-2.2,0.9-2.5,1-3.3,1c-3.1,0-5.2-2.8-5.2-5.6
				c0-0.5,0-1.9,0.7-2.8C-181.1,518.8-180.6,520.2-178.3,520.2z"/>
			<path class="st0" d="M-155.2,574.9c1.9,0.7,2.6,1,4.5,1c0.5,0,3-0.1,3.6-0.1c0.9,0,2.4,0,2.4,1.7c0,0.9-0.5,2.3-2,3.2
				c-1,0.7-2.4,1.1-7,2.3c0.9,1.9,1.7,3.3,2.6,5c1.7,3.1,1.9,3.5,1.9,4.4c0,2.4-0.8,5.1-3.3,5.1c-1.7,0-2.2-0.7-3.2-2.2
				c-1-1.4-4.9-5-10.4-5c-4.9,0-7,2.7-7,5.4c0,3.4,2.4,3.5,5.4,3.5c1.6,0,8.5-0.5,9.9-0.5c2.4,0,3.7,1.4,3.7,3.5c0,1.4,0,3-8.4,3
				c-14.3,0-15.4-4.7-15.4-8.2c0-6.6,6.6-7.6,10.2-7.6c3.1,0,6.5,0.9,8.7,1.6c0.5,0.1,1.5,0.4,2.4,0.4c1.1,0,1.6-0.3,1.6-1.1
				c0-1.2-1.5-5-2-6.6c-2.9,0.6-7.3,1.3-10.2,1.3c-1.6,0-6,0-6-4.2c0-2.8,2.3-4.3,3-4.8c-0.3,0.5-0.9,1.4-0.9,2.3
				c0,1.7,1.6,1.9,2.9,1.9s5.4-0.5,9.4-1.3c-0.1-0.2-1.1-2.6-2.4-5.1c-3.5,0.9-6.4,1-7.9,1c-7.2,0-7.7-3.9-7.9-6.1
				c1.8,1.8,2.8,2.2,4.7,2.2c3,0,6.4-1.2,8.5-2.1c-1.4-2.4-2.6-4.4-6.4-4.9c0.5-2.4,2.5-2.8,4.7-2.8c2.3,0,2.9,0.5,3.6,2.5
				s0.7,2.3,1.4,3.9c0.6-0.3,1.4-0.6,2.5-0.6c2.2,0,4.3,1.1,4.3,2.7s-2.2,2.5-4.6,3.4c1.3,3,1.4,3.3,2.4,5.3
				c1.7-0.4,2.6-0.7,2.6-1.5c0-0.4-1.4-1.5-2-1.8L-155.2,574.9z"/>
			<path class="st0" d="M-165.1,617.9c0.4,0.5,0.6,0.5,2.3,0.6c1.3,0.1,2.4,0.6,2.4,2.2c0,2.3-2.6,3.5-8.1,5.5
				c-0.8,5.6-1,6.8-1.4,8.4c0.8-0.9,4.1-4.9,4.9-5.6c6-6.3,10.4-6.9,13.3-6.9c5.6,0,9.1,2.5,9.1,5.5c0,1.4-1,2.8-2.5,2.8
				c-0.4,0-0.6,0-0.9-0.2c-2-0.7-2.4-0.9-3.3-0.9c-1.8,0-3.1,0.6-6.3,2.3v-0.2c1.1-0.9,3.1-2.5,3.1-3.7c0-0.5-0.4-1.9-3.6-1.9
				c-3.9,0-9.9,2.7-14.6,14.6c-1.7,4.2-2.6,7.1-3.4,11.5c-0.5,2.7-2.9,2.8-3.7,2.8c-2.1,0-2.7-3.6-2.7-4.8c0-1,0.1-1.3,1.4-3.3
				c3.9-6.3,5.7-17,5.9-18.6c-1.2,0.3-2.3,0.6-3.5,0.6c-5.1,0-5.5-5.4-5.5-6.4c1.3,1.5,3.4,1.5,3.6,1.5c1.9,0,5.5-1.3,6.4-1.5
				c0.2-1.8,0.7-5,0.7-6.7c0-1.2,0-2.4-2.4-2.7c0.9-1.8,3.2-2.1,3.8-2.1c2.3,0,4,2.1,4,3.4c0,0.5-0.6,3-0.8,3.5
				c-0.2,1.2-0.2,1.4-0.4,2.6c1.9-0.8,2.2-1.1,2.4-2.2L-165.1,617.9L-165.1,617.9z M-162.1,643.6c0,2.2,1.3,4.3,5.3,4.3
				c1.1,0,3.9-0.2,6.4-0.6c0.2,0,3.2-0.6,3.4-0.6c1.9,0,3.1,2.1,3.1,3.7c0,2.8-3.6,3.5-8.6,3.5c-5.8,0-11.1-0.4-11.1-7.3
				c0-4.2,2-7.4,2.8-8.7C-162.1,641.4-162.1,643.3-162.1,643.6z"/>
			<path class="st0" d="M-240.1,309.5l2.8-3.8c0.1-0.2,0.3-0.5,0.5-0.5c0.3,0,5.1,4,5.1,4.5c0,0.3-0.2,0.4-0.4,0.4h-9.7v4
				c3.1,0.9,8.5,3,8.5,7.7c0,2.4-2,3.9-4,3.9c-1.3,0-1.8-0.5-1.9-1.9c-0.4-5-1.2-7.2-2.6-9.2V339c0,0.9,0,1.4-0.9,1.4l-3.8,0.3
				c-0.8,0-1.3,0.1-1.3-0.7v-18.1c-4.3,6-8.6,8.8-10.2,9.9l-0.1-0.1c3.4-5.3,6.7-11.5,9.2-21.5h-7.7l-0.2-0.6h9.2v-7.2
				c-3,0.1-4.7,0.2-9.4,0.3v-0.1c3.1-1,12.3-3.9,19.1-7.5c1.8,1.4,4.8,3.5,6.6,4.9c0.1,0.1,0.4,0.3,0.4,0.5c0,0.1-0.1,0.2-0.5,0.2
				s-0.7-0.1-1-0.1c-1.7,0.3-4.2,0.8-9.1,1.3v7.7L-240.1,309.5L-240.1,309.5z M-233.1,331.2c0.5-2.4,2.9-13.8,4.9-35.6
				c2.5,0.4,6.2,1,7.9,1.4c0.6,0.1,1.3,0.3,1.3,0.6c0,0.5-0.7,0.6-2,0.6c-3.2,15.4-6.5,24.1-10.9,32.8l12.6-0.9
				c-0.6-3.4-2-9.2-4.7-13V317c5.7,3.4,12.4,10.6,12.4,17.3c0,4.4-3.4,4.9-4.6,4.9c-0.9,0-1.6-0.4-1.8-1.3c-0.1-0.8-1-6.3-1.2-7.2
				c-5.4,3.1-12.2,6.1-18.7,8.4c-1-2.4-1.2-2.9-2.8-7.5L-233.1,331.2z"/>
			<path class="st0" d="M-237.1,352.2c0.4,0.5,0.6,0.5,2.3,0.6c1.3,0,2.4,0.6,2.4,2.2c0,2.3-2.6,3.5-8.1,5.5c-0.8,5.6-1,6.8-1.4,8.4
				c0.8-0.9,4.1-4.9,4.9-5.6c6-6.3,10.4-6.9,13.3-6.9c5.6,0,9.1,2.5,9.1,5.5c0,1.4-1,2.8-2.5,2.8c-0.4,0-0.6,0-0.9-0.2
				c-2-0.7-2.4-0.9-3.3-0.9c-1.8,0-3.1,0.6-6.3,2.3v-0.2c1.1-0.9,3.1-2.5,3.1-3.7c0-0.5-0.4-1.9-3.6-1.9c-3.9,0-9.9,2.7-14.6,14.6
				c-1.7,4.2-2.6,7.1-3.4,11.5c-0.5,2.7-2.9,2.8-3.7,2.8c-2.1,0-2.7-3.6-2.7-4.8c0-1,0.1-1.3,1.4-3.3c3.9-6.3,5.7-17.1,5.9-18.6
				c-1.2,0.3-2.3,0.6-3.5,0.6c-5.1,0-5.5-5.4-5.5-6.4c1.3,1.5,3.4,1.5,3.6,1.5c1.9,0,5.5-1.3,6.4-1.5c0.2-1.8,0.7-5,0.7-6.7
				c0-1.2,0-2.4-2.4-2.7c0.9-1.8,3.2-2.1,3.8-2.1c2.3,0,4,2.1,4,3.4c0,0.5-0.6,3-0.8,3.5c-0.2,1.2-0.2,1.4-0.4,2.6
				c1.9-0.8,2.2-1.1,2.4-2.2L-237.1,352.2L-237.1,352.2z M-234.1,378c0,2.2,1.3,4.3,5.3,4.3c1.1,0,3.9-0.2,6.4-0.6
				c0.2,0,3.2-0.6,3.4-0.6c1.9,0,3.1,2.1,3.1,3.7c0,2.8-3.6,3.5-8.6,3.5c-5.8,0-11.1-0.4-11.1-7.3c0-4.2,2-7.4,2.8-8.7
				C-234.1,375.8-234.1,377.7-234.1,378z"/>
			<path class="st0" d="M-230.1,400.6c1.6,0.7,3.7,0.8,4.6,0.8c1.4,0,3.2,0.1,3.2,2.4c0,1.5-0.8,2.4-3.2,3.1c-2,0.6-6.6,2.1-11.4,3
				c-1,4.2-2.3,8.2-3.7,12.3c5.6-4.5,9-5.2,11.4-5.2c5.1,0,11.3,3.7,11.3,11.3c0,7.2-6.4,10.7-26.3,10.2v-0.2
				c18.8-1.6,20.1-7.5,20.1-11.9c0-3.8-2.1-7.5-6.1-7.5c-3.5,0-7.3,3.8-10.8,8.8c-0.4,0.5-1.8,2.9-2.2,3.4c-0.5,0.7-1.7,1.2-2.8,1.2
				c-3.2,0-3.2-4.9-3.2-5.1c0-1,0.3-1.5,1.5-2.6c2.5-2.5,5-9.6,6.2-14.1c-1.6,0.1-2.1,0.2-2.6,0.2c-1.5,0-5.2-0.1-5.2-4.7
				c0-1.1,0.1-2.1,0.4-3.2c1.1,2.7,1.9,3.1,5.3,3.1c1.4,0,2.3-0.1,3.1-0.2c0.7-3.8,1-5.7,1-7.3c0-1.8-0.7-2-2.2-2.2
				c0.5-0.7,1.5-2,3.2-2c1.4,0,5.2,1.4,5.2,4c0,0.6-0.1,0.7-0.8,1.8c-0.4,0.5-0.5,0.9-1.4,4.6c0.6-0.2,5.5-1.8,5.5-3.2
				c0-0.1,0-0.2-0.2-0.5L-230.1,400.6z"/>
			<path class="st0" d="M-235.4,483.4c4.5-1.3,15.9-4.5,15.9-19.7c0-7.1-3.2-17.4-14.4-17.4c2,2.6,2.4,4.4,2.4,5.7
				c0,4.9-5.3,28.3-15.6,28.3c-3.3,0-3.8-2.1-4.5-4.5c-0.6-2.4-1.1-3.2-2.3-5.1c-1.5-2.3-1.9-3.6-1.9-5.6
				c0-11.6,11.7-20.6,23.2-20.6c10.4,0,19.6,7.2,19.6,20.4c0,8.8-4.9,14.1-9.7,16.1c-4.1,1.7-8.3,2.4-12.7,2.6V483.4z M-251.1,468.3
				c0,2.4,0.3,3.3,0.7,4c0.6,1.1,1.9,2.2,2.8,2.2c3.9,0,13-15.4,13.2-28.1C-249.3,448.4-251.1,464.5-251.1,468.3z"/>
			<path class="st0" d="M-245.6,512.4c-0.5,2.4-1.5,6.7-1.5,10.6c0,1.1,0.2,1.5,1,3.5c0.1,0.4,0.3,0.9,0.3,1.3
				c0,0.7-0.5,2.9-2.3,2.9c-1.1,0-6.4-1.9-6.4-14.1c0-4.9,0.2-6,2.9-19.2c0.4-2.1,0.6-3.4,0.6-5.5c0-2.5-0.1-3.1-0.3-3.7
				c2.6,2.3,5.4,5.4,5.4,9c0,1-0.2,1.9-0.9,3.8c-2.3,6.2-3.2,8.8-3.2,14.3c0,0.4,0,2.6,1.1,2.6c0.5,0,0.8-0.6,0.9-0.9
				c0.4-0.7,1.9-4.2,2.2-4.9L-245.6,512.4z M-222.1,501.9c0.8,0.2,1,0.2,3.4,0.3c0.6,0,2.5,0.1,2.5,2.3c0,0.7-0.2,1.5-1.4,2.2
				c-2.4,1.4-5.8,2.3-7.6,2.7c0.2,5.6,0.7,8.1,0.9,9.2c3.9,1,9.7,3.4,9.7,6.9c0,1.6-1,3.1-2.3,3.1c-0.6,0-0.7,0-2.7-1.5
				c-2.5-1.7-3.5-2.2-4.2-2.5c0,2.3,0,6.6-7.3,6.6c-4.3,0-9.1-1.9-9.1-7.1c0-0.8,0.2-4.5,4.5-5.7c2.3-0.6,5.6-0.5,7.1-0.4
				c-0.3-2.5-0.4-5.9-0.5-7.7c-0.6,0.1-2.3,0.3-3.9,0.3c-4.7,0-5.8-2.8-7.1-5.7c1.7,1,2.3,1.4,5.8,1.4c2.4,0,4-0.3,4.9-0.5
				c-0.2-6.7-0.2-7-2.4-7.6c0.2-0.3,0.3-0.6,0.9-1.1c-1.5,0.2-2.4,0.3-3.5,0.3c-3.3,0-4.7-2.2-6.1-4.9c0.9,0.3,2.3,0.7,4.1,0.7
				c1,0,5.5-0.6,9.5-2.4c1.6-0.7,1.7-0.7,2.2-0.7c1.7,0,3.4,2,3.4,3.6c0,1.7-3.8,2.4-5.8,2.7c1.7,0.7,2,1.4,2,2.8
				c0,0.8-0.2,4.7-0.1,5.4c1-0.3,3.2-1.1,3.2-2.2C-222,502.2-222.1,502.1-222.1,501.9L-222.1,501.9z M-232.4,522c-0.7,0-5,0-5,2.2
				c0,1.3,1.6,2.2,3.7,2.2c4.4,0,4.9-2.7,5.1-3.8C-229.5,522.2-230.5,522-232.4,522z M-214.1,495.5c0,1.9-1.5,2.2-2.1,2.2
				c-1.5,0-1.6-0.6-2.3-3.5c-0.3-1.6-1.4-3.2-2.7-4.2C-217.5,490.4-214.1,492.5-214.1,495.5z M-210.1,489.9c0,1.2-0.7,2.1-2,2.1
				c-1,0-1.3-0.6-1.9-2c-0.1-0.4-1.2-2.5-3.5-4.2C-215,486-210.1,486.3-210.1,489.9z"/>
			<path class="st0" d="M-233.3,563.2c7-2,14.6-5.9,14.6-13.4c0-0.5,0-8.5-7.2-8.5c-4,0-10.8,3.8-14.6,6.6c-1.7,1.3-2.6,2-4.3,2
				c-2.4,0-4.2-1.8-4.2-4.6c0-1.1,0.2-1.8,0.4-2.3c0.5,1.2,1.9,1.7,2.6,1.7s1.5-0.2,4-1.3c7.2-3.1,12.2-5.2,17-5.2
				c5.4,0,11.8,4.3,11.8,12.3s-6.1,10.2-7.9,10.9c-2,0.7-6.4,2-12.2,2.1L-233.3,563.2z"/>
			<path class="st0" d="M-244.3,603.5c1,0.9,3.1,2.6,4.9,2.6c6.3,0,8.3-13.5,8.3-18.3c0-1.2,0-4.4-2.7-4.4c-0.8,0-2,0.5-4.5,1.7
				c-3.6,10.1-7.7,22-10.2,25.2c-0.9,1.2-1.9,1.8-3.1,1.8c-1.8,0-2.5-2-2.5-5.3c0-0.8,0.1-0.9,1.1-1.7c0.7-0.6,2.8-3.6,4.5-6.9
				c1.9-3.7,2.6-5.6,4.5-10.5c-1.4,0.6-3.8,1.6-5.5,1.6c-2,0-3.6-1.6-3.6-3.5s1.7-4.1,2.3-4.9c0.1,2.1,0.2,2.9,2.2,2.9
				s4.5-0.4,6.4-0.9c1.1-3.1,2.8-8.8,2.8-10s-0.9-1.4-1.4-1.4c-0.2,0-0.3,0-0.6,0.1c0-2.5,2.6-2.6,3.7-2.6c2.4,0,4.5,1.6,4.5,3
				c0,0.5-0.1,0.7-1.1,2.9c-0.5,1.3-1.3,3.3-2.6,6.9c0.5-0.1,2.1-0.4,3.1-0.4c1.2,0,8.1,0.4,8.1,10.4c0,6.6-3.7,20.3-11.8,20.3
				c-2.2,0-4.4-0.8-4.7-2.8C-242.8,607.4-243.1,605.8-244.3,603.5L-244.3,603.5z M-221.2,580.5c6.5,0,9.6,4.7,9.6,8.9
				c0,5-3.4,5.6-4.2,5.6c-2.4,0-2.4-2.4-2.4-3.1c0-6.7-0.6-10.5-6.7-11.1C-223.9,580.6-222.7,580.5-221.2,580.5z"/>
			<path class="st0" d="M-238.1,661.3c7.1-2,10.4-5.9,11.4-8.9c1-2.9,1.3-7.9,1.2-15.8c-1.4,0.3-3.7,0.7-5,0.7
				c-2.2,0-3.2-0.5-4.9-1.9c-1.8-1.5-2-1.6-2.6-1.6c-1.8,0-3.4,3.2-4.6,6c-3,7.3-3,8.7-3,10.3c0,0.8,0,1.6,0.3,2.6
				c0.1,0.6,0.9,3.4,0.9,4c0,1.1-0.8,3-2.8,3c-1.2,0-2.1-0.4-3-2.8c-1.3-3.3-2.9-8.3-2.9-14.2c0-5.2,1-9,3.3-17.7
				c0.2-0.8,0.5-2.4,0.5-3.9c0-2.1-0.4-3.1-0.8-4c3.4,1.7,6.2,5.2,6.2,8.4c0,2-0.7,3.9-1.2,5.1c-2.8,7.6-3.7,9.8-3.7,13.2
				c0,0.8,0,3.3,0.9,3.3c0.5,0,1.3-1.7,1.6-2.4c3.9-8.2,5.8-12.2,8.4-12.2c0.7,0,3.5,0.4,4.1,0.4c0.8,0,3.7-0.2,8.2-1.3
				c-0.1-3.1-0.3-8.6-0.4-9.3c-0.2-2.1-1.3-2.3-2.5-2.4c0.9-2.5,3.5-2.5,3.7-2.5c1.8,0,5,1.8,5,3.3c0,0.6-0.5,3-0.6,3.5
				c-0.1,1.7-0.1,3.9,0,5.5c0.5-0.3,2.4-2,2.9-2c0.4,0,4.3,1.5,4.3,3.8c0,1.9-0.9,2.1-6.9,3.6c0.4,7.9,0.4,8.8,0.4,10
				c0,4.7-0.3,9.7-6.8,13.2c-1.9,1.1-5.5,2.6-11.4,3v0H-238.1z"/>
			<path class="st0" d="M-244,686.9c-0.3,0.9-1.6,5-1.7,5.7c-0.6,2.3-1,4.6-1,6.2c0,1.8,0.2,2.5,0.7,4c0.7,2,0.8,2.3,0.8,2.7
				c0,1-1.3,2.5-2.6,2.5c-3.1,0-5.5-5.8-5.5-14c0-3.9,0.2-5.4,2.4-18.6c0.4-2.8,0.4-4.5,0.4-5.3c0-2.1-0.4-3.1-1.1-4.6
				c2.6,2,6,6,6,10.5c0,1.7-0.2,2.5-2.4,10.3c-1,3.6-1.1,5.6-1.1,7.3c0,1.3,0,1.7,0.4,1.7c0.3,0,1-1.3,1.3-1.9
				c1-1.9,2.4-4.8,3.4-6.7L-244,686.9z M-235.5,695.4c0,4.7,4,4.7,5.4,4.7c0.9,0,4-0.1,8.7-1.2c2.4-0.5,2.9-0.6,3.5-0.6
				c1.3,0,3.1,0.5,3.1,2.7c0,1.9-1.1,2.9-2.4,3.6c-3.2,1.6-7.7,1.8-9.3,1.8c-5,0-7-1.3-8.4-2.8c-1.5-1.6-2.3-3.6-2.3-5.3
				c0-0.3,0-2.9,2.1-5.5C-235.2,693.4-235.5,694.3-235.5,695.4z M-230.4,671.4c1.4,0,3.4-0.6,4.5-1c3.9-1.5,4-1.5,4.8-1.5
				c0,0,3.9,0.2,3.9,3.2c0,3.6-7.7,4-9.6,4c-1.6,0-5.4,0-7.3-6.3C-233,670.7-232,671.4-230.4,671.4z"/>
			<path class="st0" d="M-282.5,308.4c-2.4,1.5-2.7,2.6-3.3,5.7c0,0.3-0.2,1-1.4,1c-3.2,0-14.7-5.7-18-17.2
				c-9,13.1-19.6,17.1-24.5,18.6v-0.2c7.1-5,14.9-14.3,18.2-21.9c2.5,0.7,4.8,1.3,7.8,2.4c0.2,0.1,0.5,0.2,0.5,0.5
				c0,0.5-1,0.5-1.7,0.4c2.4,3.5,9.9,9.8,22.4,10.5L-282.5,308.4z M-305.7,322.8c-1.4,2.3-5.8,7.1-10.1,10.4l18-0.6
				c-0.7-1.1-2.2-3.7-5-6.6v-0.2c2.6,0.7,13.8,4.2,13.8,10.4c0,2.7-2.3,3.8-4.1,3.8c-1.6,0-1.8-0.5-2-1.1c-1-3-1.1-3.3-2.4-5.7
				c-6.8,2.9-17.5,5.5-26.7,6.8c-0.4-1.2-0.7-2.1-2-6.5l8.4-0.2c0.8-2.3,2.6-9.4,2.8-10.5h-13.4l-0.2-0.5h34.9l2.7-3.9
				c0.3-0.4,0.4-0.6,0.6-0.6s5.7,4.2,5.7,4.7c0,0.3-0.3,0.3-0.6,0.3L-305.7,322.8L-305.7,322.8z M-303.4,314.5l2.5-3.6
				c0.4-0.5,0.4-0.6,0.6-0.6c0.3,0,5.4,3.9,5.4,4.5c0,0.3-0.3,0.3-0.6,0.3h-25l-0.2-0.6L-303.4,314.5L-303.4,314.5z"/>
			<path class="st0" d="M-312.3,365.6c-0.8,2.7-2.6,10.2-2.6,12.9c0,0.7,0,1.9,0.8,3.2c0.8,1.3,0.9,1.5,0.9,2c0,1.4-1.3,2.6-3.4,2.6
				c-3.8,0-9-4.7-9-16.8c0-3,0.1-4.1,1.4-13.9c0.1-0.8,0.5-4.1,0.5-6c0-2.4-0.4-3.7-0.8-4.8c4.9,2.9,7.1,7.1,7.1,10.4
				c0,1.3-0.2,2.2-0.8,3.7c-1.8,4.6-2.6,7-2.6,11.5c0,3.8,0.8,6,1.8,6c0.8,0,1.5-1.2,1.6-1.4c0.8-1.5,4.2-7.8,5-9.6L-312.3,365.6z
				 M-299.5,357.1c6.6,0,13.7,3.8,13.7,12.4c0,0.7,0,6-4,6c-2.2,0-3.3-1.5-3.4-3.2c-0.1-4.7-0.3-7.9-3.1-11.6
				c-2.1-2.6-3.9-3.2-5.1-3.6C-300.3,357.1-299.9,357.1-299.5,357.1z"/>
			<path class="st0" d="M-316,412.7c-0.3,0.9-1.6,5-1.7,5.7c-0.6,2.3-1,4.6-1,6.2c0,1.8,0.2,2.5,0.7,4c0.7,2,0.8,2.3,0.8,2.7
				c0,1-1.3,2.5-2.6,2.5c-3.1,0-5.5-5.8-5.5-14c0-3.9,0.2-5.4,2.4-18.6c0.4-2.8,0.4-4.5,0.4-5.3c0-2.1-0.4-3.1-1.1-4.6
				c2.6,2,6,6,6,10.5c0,1.7-0.2,2.5-2.4,10.3c-1,3.6-1.1,5.6-1.1,7.3c0,1.3,0,1.7,0.4,1.7c0.3,0,1-1.3,1.3-1.9
				c1-1.9,2.4-4.8,3.4-6.7L-316,412.7z M-307.5,421.3c0,4.7,4,4.7,5.4,4.7c0.9,0,4-0.1,8.7-1.2c2.4-0.5,2.9-0.6,3.5-0.6
				c1.3,0,3.1,0.5,3.1,2.7c0,1.9-1.1,2.9-2.4,3.6c-3.2,1.6-7.7,1.8-9.3,1.8c-5,0-7-1.3-8.4-2.8c-1.5-1.6-2.3-3.6-2.3-5.3
				c0-0.3,0-2.9,2.1-5.5C-307.2,419.3-307.5,420.1-307.5,421.3z M-302.4,397.3c1.4,0,3.4-0.6,4.5-1c3.9-1.5,4-1.5,4.8-1.5
				c0,0,3.9,0.2,3.9,3.2c0,3.6-7.7,4-9.6,4c-1.6,0-5.4,0-7.3-6.3C-305,396.6-304,397.3-302.4,397.3z"/>
			<path class="st0" d="M-293,460.6l2.9-4.3c0.2-0.4,0.4-0.6,0.6-0.6c0.4,0,5.6,4.7,5.6,5s-0.3,0.3-0.6,0.3h-18.4
				c2.8,8.9,12.2,11.9,19.5,13.4v0.2c-2.4,0.5-3.1,2.5-3.7,4.9c-0.2,0.7-0.4,1.3-1.6,1.3c-0.4,0-9.4-2.5-12.9-12.3
				c-1.4-4-1.7-7.1-1.7-7.4h-0.5V482c0,1,0,1.3-1.4,1.4l-3.4,0.2c-1.1,0.1-1.4,0.1-1.4-1v-14.9c-5,6.3-11.7,11.1-19.4,13.7v-0.1
				c5.9-4.2,13.2-12.9,16.2-20.1h-15.9l-0.2-0.5h19.3v-14.3h-16.5l-0.2-0.6h16.8v-7.6c1.2,0.1,6.4,0.6,7.2,0.8
				c0.1,0,0.6,0.2,0.6,0.5c0,0.4-0.1,0.4-1.6,0.7v5.6h8l2.9-4.1c0.3-0.5,0.4-0.6,0.6-0.6c0.4,0,5.7,4.6,5.7,4.9s-0.3,0.4-0.6,0.4
				h-16.6v14.3L-293,460.6L-293,460.6z M-323.3,447.9c1.6,0.2,9.9,1.9,9.9,7.6c0,3.4-3.6,3.9-4.2,3.9c-0.7,0-0.9-0.2-1.1-1
				c-0.9-3.1-2.3-7.5-4.7-10.4v-0.1H-323.3z M-302.8,460.3c1.7-3.3,4-9.2,4.9-12.5c0.8,0.3,6.9,2.4,7.4,2.8c0.2,0.1,0.4,0.3,0.4,0.5
				c0,0.4-0.2,0.4-1.8,0.4c-4.2,4.4-6.7,6.3-10.9,9V460.3z"/>
			<path class="st0" d="M-322.3,493.8c1,0,6-1.1,7.1-1.3c5.8-1.1,11.6-2,17.5-2.7c1.7-0.2,1.7-0.2,3.7-1.2c0.3-0.1,0.5-0.2,0.7-0.2
				c0.7,0,6.7,1.6,6.7,4.5c0,0.9-0.7,2.2-2.2,2.2c-0.6,0-0.8,0-2.8-0.5c-2-0.4-3.6-0.5-4.5-0.5c-5.9,0-7.9,3.3-8.7,4.7
				c-1.7,2.8-2.9,8.4-2.9,13.8c0,8.6,4.1,9.5,9.2,10.8c1.9,0.4,3.6,0.9,3.6,3.6c0,0.6-0.1,3.1-2.7,3.1c-0.3,0-3.1-0.1-6.4-1.3
				c-5.6-2.1-8.3-5.6-8.3-13.7c0-8.7,3.7-16.8,9.3-20.3c-4,0.3-10.9,2.4-14.6,4.1c-2.2,0.9-2.5,1-3.3,1c-3.1,0-5.2-2.8-5.2-5.6
				c0-0.5,0-1.9,0.7-2.8C-325.1,492.4-324.6,493.8-322.3,493.8z"/>
			<path class="st0" d="M-304.4,540.1v10.7c6.7,0.8,9.5,1.7,12.3,3.5c1.2,0.7,3.2,2.6,3.2,5.1c0,3.1-3.1,4.5-4.4,4.5
				c-0.7,0-0.7,0-2-2.3c-2.2-3.9-5.8-7.9-9.2-10v26.8c0,1.2-0.2,1.3-1.2,1.4l-4,0.3c-1.2,0.1-1.2-0.2-1.2-1.2v-38.8h-18l-0.2-0.6
				h36.3l2.8-4.1c0.3-0.5,0.4-0.6,0.6-0.6c0.1,0,5.7,4.3,5.7,4.9c0,0.3-0.3,0.3-0.6,0.3L-304.4,540.1L-304.4,540.1z"/>
			<path class="st0" d="M-299.4,592.4c0.4,0.1,1,0.3,1.7,0.3c0.4,0,2.4-0.2,2.8-0.2c1.5,0,3.6,0.4,3.6,2.4c0,2.3-0.7,2.6-8,4.6
				c0.7,1.5,3.8,7.9,4.4,9.2c1.9,4,2.1,4.4,2.1,5.8c0,2.3-1.6,4.7-4.1,4.7c-0.8,0-1.3-0.2-2.8-1.7c-3.7-3.9-7.7-6-11.5-6
				c-4.3,0-5.5,3.1-5.5,5.5c0,4.2,2.8,5,5.9,5c0.3,0,1.9,0,3.4-0.2c3.1-0.5,3.4-0.5,3.9-0.6c1,0.3,3.6,1,3.6,3.6
				c0,1.7,0,2.9-8.3,2.9c-4.2,0-8.2-0.3-11.3-3.4c-1.7-1.6-2.4-3.7-2.4-5.8c0-7,7.4-7.8,10.2-7.8c1.9,0,4.2,0.3,7.1,1.2
				c1.6,0.5,3.6,1.1,3.7,1.1c1,0,1.3-1.1,1.3-1.7c0-1.8-2.7-8.4-3.6-10.6c-2.4,0.6-7.8,1.9-10.2,1.9c-1.8,0-4.1,0-8.7-7.9
				c3.1,2.5,5.2,3.1,7.5,3.1c2.6,0,6.6-1,9.4-1.8c-0.6-1.4-3.3-7.1-3.9-7.6c-0.5-0.4-1.3-0.5-2.1-0.5c0.2-1,0.5-3.2,4.7-3.2
				c1.5,0,3.7,0.5,3.7,2.6c0,0.3-0.3,1.7-0.3,2c0,0.6,0.1,1.2,1.8,5.6c1.4-0.5,2.3-0.8,2.3-1.6
				C-299.2,592.9-299.3,592.8-299.4,592.4L-299.4,592.4z"/>
			<path class="st0" d="M-312.3,653.5c-0.8,2.7-2.6,10.2-2.6,12.9c0,0.7,0,1.9,0.8,3.2s0.9,1.5,0.9,2c0,1.4-1.3,2.6-3.4,2.6
				c-3.8,0-9-4.7-9-16.8c0-3,0.1-4.1,1.4-13.9c0.1-0.8,0.5-4.1,0.5-6c0-2.4-0.4-3.7-0.8-4.8c4.9,2.9,7.1,7.1,7.1,10.4
				c0,1.3-0.2,2.2-0.8,3.7c-1.8,4.6-2.6,7-2.6,11.5c0,3.8,0.8,6,1.8,6c0.8,0,1.5-1.2,1.6-1.4c0.8-1.5,4.2-7.8,5-9.6L-312.3,653.5z
				 M-299.5,645c6.6,0,13.7,3.8,13.7,12.4c0,0.7,0,6-4,6c-2.2,0-3.3-1.5-3.4-3.2c-0.1-4.7-0.3-7.9-3.1-11.6
				c-2.1-2.6-3.9-3.2-5.1-3.6C-300.3,645-299.9,645-299.5,645z"/>
		</g>
	</g>
</g>
</svg>
